<svg width="24" height="25" viewBox="0 0 24 25" fill="none" xmlns="http://www.w3.org/2000/svg">
<path d="M4.26153 20.2943C5.39487 19.4789 6.59743 18.834 7.86923 18.3596C9.14103 17.8853 10.518 17.6481 12 17.6481C13.482 17.6481 14.859 17.8853 16.1308 18.3596C17.4026 18.834 18.6051 19.4789 19.7385 20.2943C20.6188 19.3832 21.3269 18.3071 21.8628 17.066C22.3987 15.825 22.6667 14.4635 22.6667 12.9814C22.6667 10.0259 21.6278 7.50922 19.55 5.43145C17.4722 3.35367 14.9556 2.31478 12 2.31478C9.04445 2.31478 6.52778 3.35367 4.45 5.43145C2.37222 7.50922 1.33333 10.0259 1.33333 12.9814C1.33333 14.4635 1.60128 15.825 2.13717 17.066C2.67308 18.3071 3.3812 19.3832 4.26153 20.2943ZM12.0008 13.6481C10.8772 13.6481 9.92948 13.2625 9.1577 12.4912C8.3859 11.7199 8 10.7725 8 9.64888C8 8.52528 8.38563 7.57759 9.1569 6.80581C9.92819 6.03401 10.8756 5.64811 11.9992 5.64811C13.1228 5.64811 14.0705 6.03376 14.8423 6.80505C15.6141 7.57631 16 8.52375 16 9.64734C16 10.7709 15.6144 11.7186 14.8431 12.4904C14.0718 13.2622 13.1244 13.6481 12.0008 13.6481ZM12 24.9814C10.3265 24.9814 8.75982 24.6699 7.3 24.0468C5.84018 23.4238 4.57009 22.572 3.48973 21.4917C2.4094 20.4114 1.55769 19.1413 0.9346 17.6814C0.311533 16.2216 0 14.655 0 12.9814C0 11.3079 0.311533 9.74127 0.9346 8.28145C1.55769 6.82162 2.4094 5.55153 3.48973 4.47118C4.57009 3.39085 5.84018 2.53914 7.3 1.91605C8.75982 1.29298 10.3265 0.981445 12 0.981445C13.6735 0.981445 15.2402 1.29298 16.7 1.91605C18.1598 2.53914 19.4299 3.39085 20.5103 4.47118C21.5906 5.55153 22.4423 6.82162 23.0654 8.28145C23.6885 9.74127 24 11.3079 24 12.9814C24 14.655 23.6885 16.2216 23.0654 17.6814C22.4423 19.1413 21.5906 20.4114 20.5103 21.4917C19.4299 22.572 18.1598 23.4238 16.7 24.0468C15.2402 24.6699 13.6735 24.9814 12 24.9814ZM12 23.6481C13.2291 23.6481 14.4385 23.4332 15.6282 23.0032C16.818 22.5733 17.8462 21.9849 18.7128 21.2378C17.8462 20.5421 16.8436 19.9921 15.7051 19.5878C14.5667 19.1836 13.3316 18.9814 12 18.9814C10.6684 18.9814 9.42907 19.1793 8.28207 19.575C7.13504 19.9708 6.13674 20.525 5.28717 21.2378C6.15383 21.9849 7.18204 22.5733 8.3718 23.0032C9.56153 23.4332 10.7709 23.6481 12 23.6481ZM12 12.3148C12.7487 12.3148 13.3803 12.0575 13.8949 11.543C14.4094 11.0284 14.6667 10.3968 14.6667 9.64811C14.6667 8.8994 14.4094 8.26778 13.8949 7.75324C13.3803 7.23871 12.7487 6.98145 12 6.98145C11.2513 6.98145 10.6197 7.23871 10.1051 7.75324C9.5906 8.26778 9.33333 8.8994 9.33333 9.64811C9.33333 10.3968 9.5906 11.0284 10.1051 11.543C10.6197 12.0575 11.2513 12.3148 12 12.3148Z" fill="#476A11"/>
</svg>
